<svg width="200" height="143" viewBox="0 0 200 143" fill="none" xmlns="http://www.w3.org/2000/svg">
<path fill-rule="evenodd" clip-rule="evenodd" d="M126.387 0H30.0219C13.4416 0 3.57322e-05 13.522 3.57322e-05 30.2016V68.7532C-0.0124174 76.9805 3.23063 84.8824 9.01447 90.7098L9.37115 91.0633C15.1189 96.6694 22.8153 99.8117 30.8341 99.8117H42.7793L42.7794 111.839C42.7794 128.969 56.5844 142.857 73.6134 142.857H189.431C195.268 142.857 200 138.097 200 132.225V74.0541L199.996 73.5412C199.724 56.6469 186.025 43.0355 169.166 43.0355H157.221L157.221 31.0186C157.221 13.8877 143.416 0 126.387 0ZM126.387 9.96423C137.945 9.96423 147.316 19.3908 147.316 31.0186V52.9997H169.166C180.725 52.9997 190.095 62.4263 190.095 74.0541V132.225C190.095 132.594 189.798 132.893 189.431 132.893H73.6134C62.0548 132.893 52.6843 123.466 52.6843 111.839V89.8475H30.8341C25.2778 89.8475 19.9495 87.6248 16.0236 83.6694C12.0978 79.7139 9.89649 74.3504 9.90495 68.7608V30.2016C9.90495 19.0251 18.912 9.96423 30.0219 9.96423H126.387ZM88.6886 79.7756C84.0006 79.7756 80.107 81.2892 77.0048 84.3163C73.9036 87.3434 72.3535 91.1528 72.3535 95.7453C72.3535 100.338 73.9046 104.147 77.0048 107.174C80.107 110.201 84.0006 111.715 88.6886 111.715C93.3964 111.715 97.302 110.201 100.402 107.174C103.504 104.147 105.055 100.338 105.055 95.7453C105.055 91.1528 103.504 87.3434 100.402 84.3163C97.301 81.2892 93.3964 79.7756 88.6886 79.7756ZM157.99 79.8065C153.876 79.8065 150.678 80.6923 148.395 82.463C146.112 84.2336 144.971 86.7257 144.971 89.9381C144.971 92.6564 145.836 94.7927 147.565 96.3471C149.296 97.9025 151.972 98.9478 155.595 99.4829L157.346 99.73C159.126 99.998 160.365 100.281 161.061 100.58C161.757 100.878 162.105 101.315 162.105 101.892C162.105 103.21 160.702 103.869 157.898 103.869C153.989 103.869 150.447 102.922 147.274 101.027L143.927 108.502C147.161 110.624 151.798 111.684 157.837 111.684C162.218 111.684 165.636 110.746 168.092 108.873C170.549 106.999 171.777 104.394 171.777 101.058C171.777 98.5253 170.943 96.4806 169.274 94.9262C167.606 93.3718 165.155 92.3475 161.921 91.8533L159.71 91.5135C158.789 91.369 158.108 91.2564 157.668 91.1737C157.228 91.092 156.747 90.9674 156.224 90.803C155.702 90.6386 155.345 90.4483 155.15 90.2311C154.955 90.0148 154.858 89.7528 154.858 89.4439C154.858 88.2083 156.025 87.5906 158.359 87.5906C161.368 87.6115 164.674 88.3937 168.277 89.9381L170.948 82.4012C168.43 81.4337 166.244 80.7591 164.392 80.3774C162.54 79.9968 160.406 79.8065 157.99 79.8065ZM128.39 79.7756C124.255 79.7756 121.267 81.3201 119.425 84.409V80.6096H110.213V110.912H119.824V94.6024C119.824 92.7281 120.284 91.3022 121.205 90.3237C122.127 89.3453 123.293 88.857 124.706 88.857C126.201 88.857 127.367 89.3413 128.206 90.3088C129.045 91.2763 129.465 92.6564 129.465 94.4479V110.912H139.076V91.0192C139.076 87.6005 138.068 84.8723 136.051 82.8336C134.035 80.795 131.481 79.7756 128.39 79.7756ZM88.6886 88.7952C90.5924 88.7952 92.1583 89.4439 93.3865 90.7412C94.6148 92.0386 95.2289 93.7066 95.2289 95.7453C95.2289 97.784 94.6148 99.452 93.3865 100.749C92.1583 102.047 90.5924 102.695 88.6886 102.695C86.8047 102.695 85.2497 102.047 84.0215 100.749C82.7932 99.452 82.1791 97.784 82.1791 95.7453C82.1791 93.7066 82.7932 92.0386 84.0215 90.7412C85.2497 89.4439 86.8057 88.7952 88.6886 88.7952ZM75.6865 33.9402C73.0458 33.9402 70.6508 34.6456 68.5014 36.0566C66.3521 37.4665 64.6742 39.3866 63.4658 41.8169C62.2584 44.2472 61.6542 46.9345 61.6542 49.8789C61.6542 54.3887 62.9894 58.1821 65.6617 61.2611C68.3331 64.34 71.6641 65.8795 75.6558 65.8795C79.3612 65.8795 82.2475 64.5204 84.3146 61.8021V65.0764H93.6183V34.7742H84.3146V38.0484C82.2267 35.3092 79.3513 33.9402 75.6865 33.9402ZM37.1673 34.7742H26.6968L38.3648 65.0764H49.3265L60.841 34.7742H50.6776L43.8917 54.5432L37.1673 34.7742ZM118.535 33.9402C114.4 33.9402 111.411 35.4846 109.569 38.5735V34.7742H100.358V65.0764H109.968V48.7669C109.968 46.8927 110.429 45.4668 111.35 44.4883C112.271 43.5098 113.438 43.0216 114.85 43.0216C116.345 43.0216 117.512 43.5058 118.351 44.4733C119.19 45.4409 119.61 46.8209 119.61 48.6125V65.0764H129.221V45.1838C129.221 41.7651 128.212 39.0369 126.197 36.9982C124.18 34.9595 121.625 33.9402 118.535 33.9402ZM77.9587 42.9598C79.8416 42.9598 81.3867 43.6134 82.5951 44.9217C83.8026 46.229 84.4068 47.8921 84.4068 49.9098C84.4068 51.9276 83.8035 53.5906 82.5951 54.8989C81.3877 56.2062 79.8416 56.8599 77.9587 56.8599C76.0549 56.8599 74.5098 56.2012 73.3222 54.883C72.1356 53.5647 71.5413 51.9077 71.5413 49.9098C71.5413 47.912 72.1346 46.2549 73.3222 44.9367C74.5098 43.6184 76.0549 42.9598 77.9587 42.9598Z" fill="black"/>
</svg>
