<svg width="163" height="200" viewBox="0 0 163 200" fill="none" xmlns="http://www.w3.org/2000/svg">
<path d="M162.744 22.707C162.494 24.7058 161.295 26.4834 159.546 27.233C156.298 28.732 153.3 30.7308 150.801 33.2292C147.803 36.2274 145.555 39.7252 143.806 43.4728C142.057 47.4703 140.808 51.9675 140.058 56.2149C139.559 58.7133 139.309 60.9619 139.309 63.4603C139.309 65.7089 139.309 67.9739 139.309 70.2061C139.391 71.9531 139.559 73.4541 139.559 75.203V76.4522V82.6983C139.559 84.9469 139.059 87.1955 138.809 89.4441C138.809 89.9612 138.809 90.4435 139.059 90.9432C141.058 93.6914 143.056 96.4397 145.055 99.4378C145.805 100.437 146.443 101.667 146.88 102.855C147.379 104.104 147.304 105.684 146.804 106.933C146.304 108.182 145.654 109.387 145.055 110.431C142.557 115.178 140.558 120.175 139.309 125.422C138.309 129.169 138.059 132.917 138.309 136.665C138.309 137.414 138.559 137.914 138.309 138.663C138.059 139.163 138.059 139.413 137.31 139.413C137.06 139.413 136.704 139.298 136.311 139.163C133.312 138.164 130.564 136.665 128.815 133.916C128.471 133.666 128.471 133.666 128.221 133.417C127.971 133.167 127.971 133.167 127.816 132.917C127.566 133.167 127.316 133.167 127.066 133.417C126.067 134.416 124.818 135.166 123.818 136.165C122.569 137.414 121.57 138.663 121.07 140.412C120.321 142.661 119.571 144.66 118.821 146.908C118.072 149.407 117.572 151.905 117.822 154.653C117.942 155.863 118.072 156.902 118.322 158.151C118.322 158.401 118.322 158.401 118.322 158.651C118.322 159.151 118.322 159.65 117.822 159.65C116.323 159.9 114.824 160.15 113.075 159.65C110.327 159.151 108.578 157.402 107.828 154.653C107.828 154.403 107.828 154.154 107.578 153.904C107.578 153.404 107.329 152.655 106.829 152.155C106.579 151.905 106.579 151.655 106.329 151.405C105.83 150.406 106.079 149.157 106.829 148.407C107.079 148.157 107.329 147.908 107.578 147.658C108.578 146.908 109.078 146.159 108.578 144.66C108.328 143.66 107.828 142.661 107.578 141.661C107.329 140.662 107.079 139.663 106.829 138.913C106.329 136.165 107.578 134.666 110.077 134.166C111.576 133.916 112.825 133.666 114.324 133.417C115.324 133.167 116.073 132.917 116.823 132.167C117.822 131.168 118.322 130.169 117.322 128.67C116.323 127.42 115.324 125.921 114.324 124.672C113.325 123.423 112.326 122.174 111.326 120.924C110.826 120.425 110.577 119.925 109.577 120.675C108.328 121.424 107.329 122.174 106.329 123.173C102.082 126.671 98.0844 130.418 93.5872 133.666C89.09 136.914 84.343 139.913 79.3461 142.411C74.3493 144.909 69.0744 146.846 63.5778 148.095C63.3512 148.118 63.087 148.18 62.8414 148.288C62.5958 148.396 62.1069 148.657 61.8571 149.157C60.1082 151.905 58.6091 154.903 56.6103 157.402C56.2429 157.888 56.0414 158.209 55.611 158.651C54.6116 159.65 53.8621 160.899 53.3624 162.398C52.8627 163.648 52.6128 164.897 52.363 166.146C52.2871 166.656 52.1132 167.156 51.8633 167.645C51.1138 169.394 49.8646 170.393 48.1157 171.143C47.1163 171.476 45.4507 171.809 43.1188 172.142C41.8696 172.142 40.8702 172.892 40.6203 174.141C40.3705 174.891 40.1624 175.917 40.0557 176.655C39.8059 178.154 39.8708 179.391 39.8708 180.887C39.8708 182.386 39.621 183.885 39.3711 185.384C39.2236 186.134 39.1213 186.633 38.6216 187.383C38.1219 188.132 37.6222 188.632 36.6228 188.882C35.6235 189.132 34.6241 189.382 33.8746 189.631C31.3761 190.631 29.8771 192.38 28.6278 194.628C28.1281 195.628 27.8783 196.627 27.3786 197.626C27.1288 198.126 26.9856 198.688 26.6291 199.126C26.3792 199.375 26.3792 199.375 26.1294 199.625C25.6297 200.125 25.3799 200.125 25.13 199.625C23.8808 198.376 22.3817 196.877 21.3824 195.378C20.6328 194.378 20.383 193.379 20.1331 192.38C19.8833 191.38 20.1331 190.381 20.8827 189.382C22.1319 188.132 23.3811 186.883 25.13 186.134C26.3792 185.384 27.6285 184.884 29.1275 184.385C29.8771 184.135 30.44 183.76 31.1263 183.385C32.3755 182.636 32.8752 181.387 32.6253 179.888C32.3755 178.888 32.1256 178.139 31.8758 177.139C30.6266 175.141 30.3767 173.392 30.6266 171.893C30.6266 171.893 30.6266 171.893 30.6266 171.643C30.6266 171.143 30.6266 170.893 29.8771 170.893C29.2108 170.979 28.7111 171.063 28.378 171.143C25.13 171.643 22.1319 172.892 19.6335 175.141C19.1938 175.553 18.8839 175.89 18.3842 176.14C17.6347 176.64 17.135 176.14 17.135 175.39C17.135 174.387 16.8852 173.392 16.8852 172.392C16.8852 171.143 16.7486 170.271 16.8265 169.018C16.9045 167.766 16.9537 167.779 17.035 167.369C17.1164 166.96 17.3849 166.396 17.8845 165.896C18.6341 165.147 19.3836 164.397 20.383 163.898C21.882 163.148 23.1313 162.898 24.6303 163.648C25.3799 163.898 25.8796 164.071 26.6291 164.071C28.8777 164.071 31.1263 163.648 33.3749 163.648C33.6247 163.648 34.1244 163.648 34.3742 163.148C35.8733 160.4 37.3724 157.651 39.1213 154.903C39.3711 154.403 39.621 153.654 39.621 152.904C39.621 152.655 39.4582 152.155 39.3711 151.905C38.6216 149.656 37.3724 147.408 35.6235 145.659C35.3736 145.409 34.8739 145.159 34.6241 144.909C32.3755 143.66 30.6266 142.161 28.8777 140.412C26.3792 137.664 24.3805 134.666 22.8814 131.168C22.1319 129.419 21.6322 127.42 21.3824 125.422C20.8827 120.425 22.3817 115.928 25.3799 111.93C25.7819 111.427 26.2337 110.931 26.3792 110.681C26.5248 110.431 26.6291 110.431 26.6291 110.181C26.6291 109.681 26.3792 109.681 25.8796 109.931C24.1306 110.431 22.6316 111.181 20.8827 111.68C18.3842 112.68 15.636 113.679 13.1375 114.928C10.8889 116.177 8.64033 117.676 6.89142 119.425C4.39298 122.174 2.89392 125.172 2.14438 128.919C1.89454 131.168 1.89454 133.666 2.14438 135.915L2.21489 136.165C2.21489 136.165 2.57351 135.838 2.89226 135.56C3.79082 134.653 4.92274 134.004 5.61056 133.666C6.29837 133.329 7.14126 133.167 8.39048 133.167C9.6397 133.167 10.3892 133.666 11.1388 134.416C11.8883 135.415 12.1381 135.915 12.6378 137.414C13.1375 138.913 13.6372 140.662 14.3867 142.161C15.1363 143.66 15.8858 144.909 17.135 145.909C17.3849 146.159 17.8845 146.408 18.1344 146.408C18.1344 146.908 17.6347 147.158 17.3849 147.408C16.6353 147.908 15.636 148.157 14.8864 148.407C12.388 148.907 10.3892 148.907 7.64095 147.658C4.89267 146.408 2.89392 144.41 1.6447 141.412C0.895166 139.413 0.395478 137.414 0.145634 135.415C0.0378675 134.662 0.0031568 133.274 0 132.492C0 131.71 0.0310435 129.584 0.145634 128.919C0.645322 124.672 2.39423 120.924 5.39236 117.926C7.64095 115.428 10.3892 113.679 13.3874 112.18C17.135 110.181 21.3824 108.932 25.3799 107.683C27.6285 106.933 29.8771 106.184 32.1256 105.184C35.3736 103.685 38.1219 101.686 41.12 99.6877C46.6166 95.6902 51.8633 90.9432 56.8602 86.1961C60.8577 82.1986 64.6053 78.2011 68.6029 74.2036C78.5966 64.2099 88.8402 54.2161 98.834 43.9725C100.333 42.4735 101.832 41.2242 103.331 39.7252C105.08 38.2261 106.829 36.4772 108.328 34.7283C109.01 33.9398 109.577 33.2292 110.077 32.2299C110.327 31.7302 110.428 31.3119 110.327 30.7308C110.257 30.4157 110.257 30.176 110.327 29.7314C110.577 28.732 111.254 27.7649 112.076 27.233C112.825 26.7333 113.825 26.4834 114.574 26.2336C116.323 25.7339 117.073 24.7345 117.073 22.9856C117.322 20.737 117.235 18.4747 117.485 16.2261C117.593 15.2292 117.822 14.2411 118.322 13.2417C119.071 11.9925 119.821 10.7433 121.07 9.74391C121.32 9.49407 121.39 9.24573 121.32 8.99438C121.249 8.74302 121.127 8.24485 121.07 7.74516C121.014 7.24547 121.07 5.99625 121.32 4.99688C121.82 3.49781 122.169 2.34316 122.668 0.8441C122.758 0.578915 122.925 0.299206 123.069 0C124.318 2.74828 125.874 6.36875 126.12 8.13921C126.859 6.84519 127.837 5.67119 128.815 4.49719C129.565 3.74766 130.064 3.24797 130.814 2.49844C130.814 2.49844 131.064 2.24859 131.314 1.99875V4.24735V8.24485C131.314 9.24422 131.813 9.99375 132.563 10.4934C134.062 11.7427 135.811 12.4922 137.81 12.9919C141.307 13.9913 144.805 14.2411 148.553 14.4909C151.051 14.4909 153.5 14.4909 156.042 14.6443C157.715 14.7499 158.8 14.8653 159.296 14.9906C160.296 15.2405 161.295 15.99 161.795 16.9894C162.294 18.2386 162.794 19.4878 162.794 20.737C162.794 20.9869 162.744 22.4572 162.744 22.707ZM137.31 111.181C136.797 111.067 136.56 110.931 136.311 110.931C134.811 110.681 133.312 110.431 131.813 110.181C130.814 110.044 129.565 109.931 128.565 109.931C128.316 109.931 128.066 109.931 127.816 110.181C129.565 113.179 131.564 116.177 133.312 119.176C133.452 118.926 133.452 118.926 133.562 118.676C134.229 117.177 135.478 114.678 137.31 111.181Z" fill="#02C758"/>
</svg>
